<svg width="71" height="70" viewBox="0 0 71 70" fill="none" xmlns="http://www.w3.org/2000/svg">
    <path fill-rule="evenodd" clip-rule="evenodd"
          d="M23.3579 16.1245C26.8332 13.8946 30.962 12.5834 35.4 12.5834C39.6123 12.5834 43.5452 13.7644 46.9063 15.7891L49.9677 12.1164C45.7493 9.41285 40.7604 7.83337 35.4 7.83337C29.764 7.83337 24.531 9.56938 20.1837 12.5273L23.3579 16.1245ZM23.0407 18.7878L17.2409 12.215C17.7633 11.7979 18.3002 11.3981 18.8507 11.0166C23.5558 7.7561 29.2547 5.83337 35.4 5.83337C41.2515 5.83337 46.6888 7.58603 51.2576 10.5689C51.8184 10.9351 52.3662 11.3198 52.9 11.7221L47.2986 18.4421C43.9444 16.0257 39.8421 14.5834 35.4 14.5834C30.7523 14.5834 26.475 16.1628 23.0407 18.7878Z"
          fill="#2C2C2C"/>
    <path fill-rule="evenodd" clip-rule="evenodd"
          d="M52.2203 20.217C55.6937 24.161 57.8167 29.332 57.8167 35C57.8167 47.3629 47.7629 57.4167 35.4 57.4167C23.0371 57.4167 12.9834 47.3629 12.9834 35C12.9834 29.5612 14.9359 24.5737 18.164 20.6932L14.9971 17.1038C10.7893 21.8914 8.23337 28.1499 8.23337 35C8.23337 49.9779 20.4221 62.1667 35.4 62.1667C50.378 62.1667 62.5667 49.9779 62.5667 35C62.5667 27.8781 59.7946 21.4018 55.2782 16.5482L52.2203 20.217ZM49.5415 20.3073C53.4017 24.0246 55.8167 29.2308 55.8167 35C55.8167 46.2583 46.6584 55.4167 35.4 55.4167C24.1417 55.4167 14.9834 46.2583 14.9834 35C14.9834 29.4379 17.2248 24.3935 20.8444 20.7083L15.0519 14.1429C14.5731 14.6103 14.1101 15.0939 13.664 15.5928C9.05002 20.7523 6.23337 27.5494 6.23337 35C6.23337 51.0825 19.3175 64.1667 35.4 64.1667C51.4825 64.1667 64.5667 51.0825 64.5667 35C64.5667 27.2548 61.5138 20.2249 56.5683 15.0004C56.1083 14.5144 55.6319 14.0441 55.14 13.5902L49.5415 20.3073Z"
          fill="#2C2C2C"/>
    <path fill-rule="evenodd" clip-rule="evenodd"
          d="M36.8583 40.8333L48.525 52.5L54.3583 46.6667L41.2333 33.5417L36.8583 21.875V40.8333ZM33.9417 21.875V40.8333L22.275 52.5L16.4417 46.6667L29.5667 33.5417L33.9417 21.875ZM31.9417 32.9043L31.2872 34.6495L19.2701 46.6667L22.275 49.6716L31.9417 40.0049V32.9043ZM38.8583 32.9043L39.5128 34.6495L51.5299 46.6667L48.525 49.6716L38.8583 40.0049V32.9043Z"
          fill="#2C2C2C"/>
</svg>
