<svg width="29" height="30" viewBox="0 0 29 30" fill="none" xmlns="http://www.w3.org/2000/svg">
    <path d="M13.238 3.13597L13.0138 3.05609C12.5819 2.90226 12.1418 2.7719 11.6954 2.66558C11.8389 1.50586 12.2724 0.204136 13.6177 0.0266287C13.7505 0.008726 13.8843 -0.000170182 14.0183 2.46512e-06C16.0572 2.46512e-06 19.1633 1.99105 20.9121 5.69504C21.7307 7.4242 22.2138 8.58445 22.5368 9.35991L22.5654 9.42862C22.7363 9.89528 22.9453 10.3474 23.1902 10.7806C23.262 10.8948 23.3409 11.0045 23.4263 11.109C23.3458 11.4564 23.246 11.7991 23.1274 12.1356C23.0497 12.3605 22.9719 12.5735 22.8972 12.7776C22.4914 12.4658 22.1461 12.0839 21.8778 11.6504C21.5752 11.1367 21.3201 10.5971 21.1154 10.0381L21.1089 10.0224C20.792 9.25899 20.3146 8.10897 19.4951 6.37549C18.099 3.42294 15.5729 1.59757 14.0303 1.59757C13.9656 1.59298 13.9006 1.59298 13.8359 1.59757C13.5968 1.62716 13.3307 1.95259 13.238 3.13597Z"
          fill="#1B9F9F"/>
    <path d="M5.5968 7.32142L5.38155 7.42497L5.34568 7.42201C4.93508 7.61993 4.53587 7.84018 4.14987 8.08175C3.42341 7.13504 2.81654 5.91024 3.64464 4.82744C4.53253 3.66477 6.50562 2.94586 8.7956 2.94586C10.1538 2.95109 11.501 3.18829 12.7776 3.64702C14.6282 4.32155 15.8001 4.80377 16.5743 5.12625C17.0245 5.33252 17.4903 5.50364 17.9675 5.63806C18.1028 5.66589 18.2395 5.68663 18.377 5.70019C18.5612 6.0022 18.7298 6.31323 18.8823 6.6321C18.9929 6.85399 19.0915 7.05812 19.1812 7.25634C19.0105 7.28667 18.8375 7.30251 18.664 7.30367C18.3251 7.29983 17.9874 7.26116 17.6566 7.18829C17.0815 7.04174 16.5212 6.84369 15.9824 6.5966L15.9609 6.58771C15.2014 6.27403 14.055 5.80058 12.2575 5.15879C11.1562 4.76213 9.99442 4.555 8.8225 4.54639C6.79261 4.54639 5.39949 5.1795 4.92117 5.80669C4.78066 5.99308 4.81653 6.4043 5.5968 7.32142Z"
          fill="#1B9F9F"/>
    <path d="M21.5819 5.60551L21.4892 5.40137V5.40433C21.2906 4.98636 21.069 4.57946 20.8255 4.18545C21.4264 3.70913 22.1409 3.29791 22.8763 3.29791C23.2958 3.29571 23.7037 3.43443 24.0333 3.69138C25.7104 4.99606 26.6312 8.85686 25.2052 12.8804C24.5475 14.7353 24.0691 15.9128 23.7493 16.6909C23.5414 17.1441 23.3704 17.613 23.2381 18.0932L23.2295 18.1357L23.2219 18.1726C23.1974 18.2914 23.1753 18.3989 23.1753 18.4985C22.8755 18.6821 22.5661 18.85 22.2485 19.0014L21.6237 19.2973C21.5543 18.7873 21.5786 18.2691 21.6955 17.7677C21.8449 17.1905 22.0449 16.6272 22.2934 16.0844C22.3307 15.9915 22.3702 15.8936 22.4121 15.79L22.413 15.7877C22.7229 15.0207 23.157 13.9464 23.7253 12.3449C24.957 8.8539 24.1229 5.75639 23.0736 4.94873C23.0178 4.90436 22.9478 4.88127 22.8763 4.88364C22.5146 4.88364 22.0153 5.2357 21.5819 5.60551Z"
          fill="#1B9F9F"/>
    <path d="M23.4831 21.596L23.2679 21.6966C24.0482 22.6166 24.084 23.0279 23.9435 23.2113C23.4652 23.8385 22.0721 24.4746 20.0571 24.4746C18.8792 24.4675 17.7113 24.2604 16.6042 23.8622C14.7776 23.2143 13.6267 22.7468 12.8554 22.4243C12.3162 22.1757 11.7547 21.9776 11.1782 21.8327C10.8591 21.7628 10.5335 21.7261 10.2066 21.7232C10.0221 21.7237 9.83804 21.7406 9.65656 21.7735L9.95551 22.3888C10.108 22.7063 10.2777 23.0154 10.4637 23.3148C10.5985 23.3268 10.7323 23.3475 10.8643 23.377C11.3425 23.5081 11.8086 23.6794 12.2574 23.8888L12.2976 23.9053C13.0721 24.225 14.2353 24.705 16.0541 25.368C17.33 25.8209 18.6748 26.0541 20.0302 26.0573C22.0183 26.0573 24.2963 25.3355 25.1842 24.1758C26.0123 23.09 25.4054 21.8652 24.6789 20.9214C24.2923 21.1628 23.8931 21.384 23.4831 21.5841V21.596Z"
          fill="#1B9F9F"/>
    <path d="M7.25591 23.3769L7.36653 23.6166L7.35457 23.6255C7.55387 24.0199 7.77111 24.4144 8.00629 24.8088C7.38446 25.3384 6.75965 25.7555 6.02124 25.7555C5.58427 25.7493 5.16249 25.5959 4.82543 25.3206C3.15129 24.0396 2.22753 20.164 3.64755 16.1494C4.30525 14.2915 4.78357 13.114 5.10644 12.336C5.31498 11.8843 5.48497 11.4163 5.61466 10.9366C5.64755 10.7887 5.66548 10.6556 5.68043 10.5343C5.97909 10.3487 6.28744 10.1788 6.6042 10.0254L7.22901 9.72955C7.29846 10.2364 7.27517 10.7515 7.16025 11.2502C7.01179 11.8268 6.8117 12.3892 6.56234 12.9306L6.52417 13.0247C6.21328 13.7904 5.7532 14.9237 5.13335 16.6731C3.90166 20.164 4.73574 23.2616 5.78208 24.0692C5.85 24.1336 5.93922 24.1715 6.0332 24.1757C6.32617 24.1757 6.79852 23.7882 7.25591 23.3769Z"
          fill="#1B9F9F"/>
    <path d="M3.09819 15.776C3.10783 15.7487 3.11746 15.7214 3.12743 15.6938C1.93161 15.6199 1.63266 15.4986 1.58782 15.1376C1.41443 13.8123 2.98991 11.0283 6.32622 9.43373C8.06613 8.6024 9.21411 8.12313 9.97345 7.80657C10.5298 7.59945 11.0661 7.343 11.5758 7.04033C12.015 6.76625 12.3991 6.41419 12.7089 6.00191L12.0512 5.76228C11.7249 5.64623 11.3926 5.54747 11.0557 5.46643C10.957 5.54631 10.8464 5.62619 10.7119 5.71494C10.2816 5.96111 9.83169 6.17187 9.36657 6.34509C8.59229 6.66757 7.42637 7.15867 5.65059 8.00479C1.821 9.83904 -0.250742 13.2354 0.024295 15.3507C0.218614 16.8299 1.49514 17.1257 2.65807 17.2411C2.7627 16.8003 2.88826 16.3536 3.03774 15.9335V15.9423C3.05966 15.8852 3.07893 15.8306 3.09819 15.776Z"
          fill="#1B9F9F"/>
    <path d="M28.8314 13.6851C28.655 12.3301 27.3725 11.8923 26.2066 11.7502C26.1018 12.2027 25.972 12.6491 25.8179 13.0875L25.7402 13.3005C26.936 13.3952 27.235 13.6614 27.2708 13.8922C27.4412 15.2087 25.8538 17.9926 22.5294 19.5783C20.8521 20.3811 19.724 20.8556 18.9648 21.175L18.8852 21.2085C18.3274 21.4144 17.79 21.6709 17.2798 21.9747C16.8387 22.2473 16.4533 22.5995 16.1438 23.0131L16.8015 23.2528C17.1281 23.3679 17.4604 23.4666 17.797 23.5486C17.9068 23.4585 18.0216 23.3745 18.1408 23.2971C18.5713 23.0522 19.0212 22.8425 19.4861 22.6699L19.5533 22.6417C20.3276 22.3164 21.4798 21.8322 23.1991 21.0102C27.0347 19.1967 29.1064 15.7826 28.8314 13.6851Z"
          fill="#1B9F9F"/>
    <path d="M15.6206 25.8857L15.8449 25.9656C16.2723 26.1177 16.7074 26.2481 17.1483 26.3561C17.0197 27.5129 16.5713 28.8146 15.226 28.9921C15.0933 29.0111 14.9595 29.021 14.8254 29.0217C12.8015 29.0188 9.69539 27.0277 7.9495 23.3385C7.10945 21.5634 6.62215 20.3801 6.31124 19.6049C6.13902 19.1388 5.9301 18.6867 5.68643 18.2529C5.60272 18.1257 5.525 18.0192 5.45325 17.9304C5.53368 17.5811 5.63348 17.2364 5.7522 16.8979C5.79943 16.7631 5.84666 16.6327 5.89255 16.5059C5.92218 16.4241 5.95125 16.3438 5.9794 16.2648C6.38425 16.5723 6.72789 16.9515 6.99285 17.3831C7.29419 17.897 7.54833 18.4366 7.75219 18.9955C7.77695 19.0543 7.80265 19.1155 7.82939 19.1792C8.14813 19.9383 8.61356 21.0467 9.36654 22.6462C10.7597 25.5958 13.2858 27.4241 14.8284 27.4241C14.8931 27.4274 14.958 27.4274 15.0227 27.4241C15.2619 27.3946 15.525 27.0691 15.6206 25.8857Z"
          fill="#1B9F9F"/>
</svg>
