<svg width="71" height="70" viewBox="0 0 71 70" fill="none" xmlns="http://www.w3.org/2000/svg">
    <path fill-rule="evenodd" clip-rule="evenodd"
          d="M4.17499 14.2188C4.17499 10.6477 7.0727 7.75 10.6437 7.75H27.05C30.0173 7.75 32.425 10.1577 32.425 13.125V14.125H11.6437V25.25H32.425V26.25C32.425 29.2173 30.0173 31.625 27.05 31.625H10.6437C7.0727 31.625 4.17499 28.7273 4.17499 25.1563V14.2188ZM10.6437 9.75C8.17727 9.75 6.17499 11.7523 6.17499 14.2188V25.1563C6.17499 27.6227 8.17727 29.625 10.6437 29.625H27.05C28.5646 29.625 29.8475 28.6251 30.2741 27.25H9.64374V12.125H30.2741C29.8475 10.7499 28.5646 9.75 27.05 9.75H10.6437ZM34.8 14.2188C34.8 10.6477 37.6977 7.75 41.2687 7.75H57.675C60.6423 7.75 63.05 10.1577 63.05 13.125V14.125H42.2687V16.5H56.5812C60.1523 16.5 63.05 19.3977 63.05 22.9688V25.1563C63.05 28.7273 60.1523 31.625 56.5812 31.625H40.175C37.2077 31.625 34.8 29.2173 34.8 26.25V25.25H55.5812V22.875H41.2687C37.6977 22.875 34.8 19.9773 34.8 16.4063V14.2188ZM41.2687 9.75C38.8023 9.75 36.8 11.7523 36.8 14.2188V16.4063C36.8 18.8727 38.8023 20.875 41.2687 20.875H57.5812V27.25H36.9508C37.3774 28.6251 38.6604 29.625 40.175 29.625H56.5812C59.0477 29.625 61.05 27.6227 61.05 25.1563V22.9688C61.05 20.5023 59.0477 18.5 56.5812 18.5H40.2687V12.125H60.8991C60.4725 10.7499 59.1896 9.75 57.675 9.75H41.2687ZM4.17499 44.8438C4.17499 41.2727 7.0727 38.375 10.6437 38.375H27.05C30.0173 38.375 32.425 40.7827 32.425 43.75V44.75H11.6437V55.875H24.9562V53.5H19.3937C16.4265 53.5 14.0187 51.0923 14.0187 48.125V47.125H32.425V56.875C32.425 59.8423 30.0173 62.25 27.05 62.25H10.6437C7.0727 62.25 4.17499 59.3523 4.17499 55.7813V44.8438ZM10.6437 40.375C8.17727 40.375 6.17499 42.3773 6.17499 44.8438V55.7813C6.17499 58.2477 8.17727 60.25 10.6437 60.25H27.05C28.9127 60.25 30.425 58.7377 30.425 56.875V49.125H16.1696C16.5962 50.5001 17.8791 51.5 19.3937 51.5H26.9562V57.875H9.64374V42.75H30.2741C29.8475 41.3749 28.5646 40.375 27.05 40.375H10.6437ZM34.8 44.8438C34.8 41.2727 37.6977 38.375 41.2687 38.375H56.5812C60.1523 38.375 63.05 41.2727 63.05 44.8438V55.7813C63.05 59.3523 60.1523 62.25 56.5812 62.25H41.2687C37.6977 62.25 34.8 59.3523 34.8 55.7813V44.8438ZM41.2687 40.375C38.8023 40.375 36.8 42.3773 36.8 44.8438V55.7813C36.8 58.2477 38.8023 60.25 41.2687 60.25H56.5812C59.0477 60.25 61.05 58.2477 61.05 55.7813V44.8438C61.05 42.3773 59.0477 40.375 56.5812 40.375H41.2687ZM40.2687 42.75H57.5812V57.875H40.2687V42.75ZM42.2687 44.75V55.875H55.5812V44.75H42.2687Z"
          fill="#2C2C2C"/>
</svg>
