<svg width="70" height="70" viewBox="0 0 70 70" fill="none" xmlns="http://www.w3.org/2000/svg">
    <path d="M29.4 5.59998C29.0531 5.60031 28.7186 5.72945 28.4615 5.96234C28.2043 6.19524 28.0428 6.51531 28.0082 6.86052C28.0094 6.84838 27.819 7.44871 27.5024 7.82302C27.1857 8.19733 26.8601 8.39998 26.4524 8.39998H22.6188L22.616 8.39724C22.5112 8.27413 22.3617 8.01693 22.2824 7.83669L22.2688 7.85857C22.1636 7.60766 21.9875 7.39284 21.7622 7.24036C21.5369 7.08788 21.272 7.00435 21 6.99998H7.00001C6.62871 7.00001 6.27264 7.14752 6.0101 7.41007C5.74756 7.67261 5.60004 8.02868 5.60001 8.39998V19.6C5.60001 23.9797 6.92085 29.2294 7.00001 29.5422L6.98907 31.6859L6.03751 32.5828C5.89926 32.7137 5.78915 32.8714 5.71393 33.0463C5.63871 33.2212 5.59994 33.4096 5.60001 33.6V39.2C5.60008 39.5713 5.74761 39.9273 6.01016 40.1898L7.00001 41.1797V47.373L5.6711 51.357C5.58694 51.6095 5.57651 51.8808 5.64102 52.139L6.94258 57.3453L5.6711 61.157C5.60091 61.3675 5.58177 61.5917 5.61526 61.8111C5.64874 62.0305 5.73389 62.2387 5.86368 62.4187C5.99347 62.5987 6.16419 62.7453 6.36176 62.8464C6.55933 62.9474 6.77809 63.0001 7.00001 63H26.6C26.9713 62.9999 27.3273 62.8524 27.5899 62.5898L27.7348 62.4449C27.8008 62.5372 27.799 62.5762 27.8715 62.6691C28.4743 63.4418 29.3524 64.4 30.8 64.4H35C36.1667 64.4 37.0262 63.9023 37.7262 63.5523C38.4262 63.2023 38.9667 63 39.2 63H46.2C46.5713 62.9999 46.9273 62.8524 47.1899 62.5898L47.507 62.2726C47.6968 62.5158 47.924 62.7622 48.1113 62.9972C48.3446 63.2899 48.5814 63.5803 48.9289 63.8558C49.2764 64.1314 49.8037 64.4 50.4 64.4H57.4C57.7713 64.3999 58.1274 64.2524 58.3899 63.9899C58.6525 63.7273 58.8 63.3713 58.8 63V61.9937L62.6609 62.959C62.8681 63.0106 63.0842 63.0143 63.293 62.9696C63.5017 62.9249 63.6974 62.8331 63.8652 62.7012C64.033 62.5693 64.1685 62.4007 64.2612 62.2084C64.3538 62.0162 64.4013 61.8052 64.4 61.5918C64.4 61.5918 64.3108 47.7757 64.4 40.6164C64.4021 40.4298 64.367 40.2447 64.2965 40.0718C64.2261 39.899 64.1218 39.7421 63.9899 39.6101L63 38.6203V32.2C62.9999 31.8287 62.8524 31.4727 62.5899 31.2101L61.9035 30.5238L62.7512 28.8285L63.9899 27.5898C64.2524 27.3273 64.3999 26.9713 64.4 26.6C64.4 25.1869 64.3809 20.9874 64.3809 19.5863C64.3809 19.4729 64.3671 19.36 64.3399 19.25L63.082 14.164L64.2524 11.8261C64.3495 11.6317 64.4001 11.4173 64.4 11.2V8.39998C64.4 8.02868 64.2525 7.67261 63.9899 7.41007C63.7274 7.14752 63.3713 7.00001 63 6.99998H57.4C56.9492 6.99998 56.4725 7.12571 56 7.2488V6.99998C56 6.62868 55.8525 6.27261 55.5899 6.01007C55.3274 5.74752 54.9713 5.60001 54.6 5.59998H46.2C45.1026 5.59998 44.0057 5.9482 43.318 6.7156C42.8861 7.19752 42.7407 7.81916 42.5277 8.39998H41.2645C41.1793 8.29486 41.1676 8.30259 41.0649 8.14841C40.7945 7.74289 40.6 7.23331 40.6 6.99998C40.6 6.62868 40.4525 6.27261 40.1899 6.01007C39.9274 5.74752 39.5713 5.60001 39.2 5.59998H29.4ZM30.2094 8.39998H38.284C38.4612 8.82812 38.5281 9.391 38.7352 9.70154C39.1648 10.346 39.6102 10.7898 39.6102 10.7898C39.8727 11.0524 40.2287 11.1999 40.6 11.2H43.4C43.7009 11.1997 43.9938 11.1025 44.2351 10.9227C44.4764 10.7429 44.6534 10.4902 44.7399 10.2019C45.0279 9.24158 45.2822 8.71907 45.4016 8.58591C45.5209 8.45276 45.525 8.39998 46.2 8.39998H53.2V9.79998C53.2001 10.0781 53.283 10.35 53.4383 10.5808C53.5935 10.8117 53.8139 10.991 54.0715 11.096C54.3291 11.2011 54.6121 11.227 54.8845 11.1705C55.1569 11.114 55.4062 10.9777 55.6008 10.7789C56.2068 10.1608 56.5172 9.93266 56.6344 9.87654C56.7515 9.82042 56.8443 9.79998 57.4 9.79998H61.6V10.8691L60.3477 13.3738C60.1988 13.6717 60.161 14.013 60.241 14.3363L61.5809 19.7586C61.5817 21.1517 61.5946 24.4046 61.5973 26.023L60.6102 27.0101C60.5037 27.1165 60.4151 27.2393 60.3477 27.3738L58.9477 30.1738C58.8163 30.4366 58.771 30.7341 58.8181 31.0242C58.8652 31.3142 59.0024 31.5821 59.2102 31.7898L60.2 32.7797V39.2C60.2001 39.5713 60.3476 39.9273 60.6102 40.1898L61.6 41.1797C61.5291 47.8981 61.5881 57.8432 61.6 59.8062L57.7391 58.841C57.5326 58.7895 57.3172 58.7857 57.1091 58.8299C56.901 58.8742 56.7057 58.9653 56.538 59.0963C56.3704 59.2273 56.2348 59.3947 56.1416 59.586C56.0484 59.7772 55.9999 59.9872 56 60.2V61.6H50.6133C50.5541 61.5444 50.4555 61.4493 50.2988 61.2527C49.9286 60.7881 49.3903 60.0106 48.5899 59.2101C48.3273 58.9477 47.9712 58.8003 47.6 58.8003C47.2288 58.8003 46.8727 58.9477 46.6102 59.2101L45.6203 60.2H39.2C38.0333 60.2 37.1738 60.6976 36.4738 61.0476C35.7738 61.3976 35.2333 61.6 35 61.6H30.8C30.8476 61.6 30.4589 61.4345 30.0781 60.9465C29.6974 60.4584 29.3777 59.8353 29.2633 59.5957C29.1666 59.3937 29.0229 59.2179 28.8443 59.0829C28.6656 58.9479 28.4572 58.8578 28.2365 58.82C28.0158 58.7822 27.7892 58.798 27.5758 58.8658C27.3625 58.9337 27.1685 59.0518 27.0102 59.2101L26.0203 60.2H8.94415L9.72891 57.8429C9.81307 57.5904 9.8235 57.3192 9.75899 57.0609L8.45743 51.8547L9.72891 48.0429C9.77627 47.9001 9.80027 47.7505 9.80001 47.6V40.6C9.79994 40.2287 9.6524 39.8727 9.38985 39.6101L8.40001 38.6203V34.2043L9.3461 33.3074C9.48335 33.1775 9.59287 33.0211 9.66806 32.8477C9.74325 32.6743 9.78255 32.4874 9.7836 32.2984L9.80001 29.4082C9.8009 29.2912 9.78712 29.1745 9.75899 29.0609C9.75899 29.0609 8.40001 23.4889 8.40001 19.6V9.79998H20.2289C20.3238 9.94322 20.3592 10.0673 20.4832 10.2129C20.8579 10.6529 21.4589 11.2 22.4 11.2H26.4524C27.8534 11.2 28.958 10.4401 29.6406 9.63318C29.9781 9.2342 30.0183 8.8064 30.2094 8.39998ZM47.6984 15.4C47.559 15.4031 47.4207 15.4271 47.2883 15.4711L38.7625 18.2711C38.5187 18.3515 38.3018 18.4974 38.1353 18.6928C37.9689 18.8882 37.8593 19.1256 37.8187 19.379C37.7781 19.6325 37.8079 19.8922 37.9049 20.1299C38.0019 20.3675 38.1624 20.5739 38.3688 20.7265L49.7356 29.1265C49.9281 29.2686 50.1538 29.359 50.3913 29.389C50.6287 29.4191 50.8698 29.3877 51.0917 29.2981C51.3135 29.2084 51.5087 29.0634 51.6585 28.8768C51.8084 28.6902 51.9079 28.4684 51.9477 28.2324L53.3668 19.8324C53.4119 19.5644 53.378 19.289 53.2692 19.0399C53.1604 18.7908 52.9815 18.5788 52.7543 18.4297L48.4942 15.6297C48.2581 15.4746 47.9808 15.3945 47.6984 15.4ZM20.5598 15.4027C20.4685 15.4066 20.3778 15.4194 20.2891 15.441L15.0637 16.7371C14.8321 16.7943 14.619 16.9098 14.4445 17.0726C14.2701 17.2354 14.1402 17.44 14.067 17.6671C13.9939 17.8941 13.98 18.1361 14.0266 18.3701C14.0733 18.6041 14.179 18.8222 14.3336 19.0039L43.0801 52.7078C43.2116 52.8622 43.3751 52.9861 43.5592 53.0711C43.7433 53.1561 43.9437 53.2001 44.1465 53.2H50.6789C50.9522 53.1999 51.2195 53.1199 51.4479 52.9698C51.6763 52.8196 51.8557 52.6059 51.9641 52.3551L55.8852 43.2824C56.0091 42.9957 56.0337 42.6758 55.9549 42.3736C55.8761 42.0713 55.6985 41.8041 55.4504 41.6144L21.4758 15.6871C21.2135 15.4874 20.8891 15.3867 20.5598 15.4027ZM20.3109 18.3203L52.8801 43.1758L49.7602 50.4H44.7918L17.9348 18.9109L20.3109 18.3203ZM47.5207 18.3394L50.4547 20.2672L49.566 25.5199L42.2106 20.084L47.5207 18.3394ZM18.1781 37.8C17.8779 37.8048 17.5872 37.906 17.3489 38.0887C17.1106 38.2714 16.9374 38.5258 16.8547 38.8144L14.0547 48.6144C13.9764 48.8872 13.9828 49.1774 14.0731 49.4465C14.1635 49.7156 14.3335 49.9508 14.5606 50.1211L20.1606 54.3211C20.3416 54.4567 20.5529 54.5465 20.7762 54.5827C20.9995 54.6189 21.2283 54.6004 21.443 54.5289L29.843 51.7289C30.0694 51.6534 30.2728 51.5213 30.4339 51.345C30.5949 51.1688 30.7082 50.9543 30.763 50.722C30.8178 50.4897 30.8122 50.2472 30.7469 50.0176C30.6816 49.788 30.5587 49.5789 30.3899 49.4101L19.1899 38.2101C19.0573 38.0775 18.8994 37.9728 18.7256 37.9024C18.5518 37.8319 18.3656 37.7971 18.1781 37.8ZM18.8918 41.8715L26.8078 49.7875L21.2543 51.6386L17.0106 48.4586L18.8918 41.8715Z"
          fill="#2C2C2C"/>
</svg>
